<?xml version="1.0" encoding="utf-8"?>
<!-- Generator: Adobe Illustrator 23.1.0, SVG Export Plug-In . SVG Version: 6.00 Build 0)  -->
<svg version="1.1" id="图层_1" xmlns="http://www.w3.org/2000/svg" xmlns:xlink="http://www.w3.org/1999/xlink" x="0px" y="0px"
	 viewBox="0 0 595.28 841.89" style="enable-background:new 0 0 595.28 841.89;" xml:space="preserve">
<style type="text/css">
	.st0{fill:#20AF94;}
</style>
<g>
	<path class="st0" d="M315.16,222.76c-2.46,0-4.28,1.95-4.28,4.28v85.72c0,2.46,1.94,4.28,4.28,4.28h85.72
		c2.46,0,4.28-1.95,4.28-4.28c0-21.92-8.04-43.05-22.56-59.52C365.48,233.92,340.97,222.76,315.16,222.76z M319.44,308.48v-76.9
		c21.66,1.17,42.15,11.02,56.67,27.36c12.19,13.75,19.32,31.25,20.23,49.54H319.44z"/>
	<path class="st0" d="M384.02,339.48c0-2.33-1.94-4.28-4.28-4.28h-81.83c-3.5,0-6.48-2.85-6.48-6.48v-81.83
		c0-2.33-1.94-4.28-4.28-4.28c-59.53,0-106.73,53.82-95.32,115.42c7.13,38.52,38.26,69.51,76.64,76.77
		C330.2,446.21,384.02,399,384.02,339.48z"/>
</g>
</svg>
