<?xml version="1.0" encoding="utf-8"?>
<!-- Generator: Adobe Illustrator 23.1.0, SVG Export Plug-In . SVG Version: 6.00 Build 0)  -->
<svg version="1.1" id="图层_1" xmlns="http://www.w3.org/2000/svg" xmlns:xlink="http://www.w3.org/1999/xlink" x="0px" y="0px"
	 viewBox="0 0 595.28 841.89" style="enable-background:new 0 0 595.28 841.89;" xml:space="preserve">
<style type="text/css">
	.st0{fill-rule:evenodd;clip-rule:evenodd;fill:#20AF94;}
</style>
<g>
	<g transform="translate(0.000000, 3.000000)">
		<path class="st0" d="M332.38,416c-7.9,10.74-34.31,13.45-34.31,13.45s-27.02-2.71-34.92-13.2c-38.13,0-58,54.67-58,54.67h185.85
			C390.99,470.92,375.32,416,332.38,416L332.38,416z"/>
		<path class="st0" d="M334.1,338.5c0,19.87-16.54,57.75-36.77,57.75c-20.36,0-36.77-37.88-36.77-57.75
			c0-19.87,16.41-35.91,36.77-35.91C317.57,302.59,334.1,318.76,334.1,338.5L334.1,338.5z"/>
		<path class="st0" d="M411.97,377.87c-6.91,10.74-28.63,16.54-28.63,16.54s-25.42-5.68-32.33-16.29c0,0-0.25,12.46-10.86,26.9
			c33.69-4.32,48.25,28.14,48.25,28.14l58.62,0.12C447.02,433.28,449.73,377.87,411.97,377.87L411.97,377.87z"/>
		<path class="st0" d="M409.87,312.59c0,15.92-12.34,46.15-27.64,46.15c-15.3,0-27.77-30.23-27.77-46.15
			c0-15.8,12.46-28.75,27.77-28.75C397.41,283.96,409.87,296.79,409.87,312.59L409.87,312.59z"/>
		<path class="st0" d="M183.8,377.87c7.03,10.74,29,16.41,29,16.41s25.67-5.55,32.7-16.17c0,0,0.25,12.34,10.98,26.66
			c-34.18-4.32-48.87,27.89-48.87,27.89l-59.36,0.12C148.26,432.91,145.67,377.87,183.8,377.87L183.8,377.87z"/>
		<path class="st0" d="M185.4,313.21c0,15.55,12.46,45.17,27.64,45.17c15.3,0,27.77-29.62,27.77-45.17
			c0-15.55-12.34-28.14-27.77-28.14C197.74,285.19,185.4,297.66,185.4,313.21L185.4,313.21z"/>
	</g>
</g>
</svg>
